<mxfile host="app.diagrams.net" agent="Mozilla/5.0 (X11; Linux x86_64; rv:132.0) Gecko/20100101 Firefox/132.0" version="24.8.6" pages="2">
  <diagram id="ZYCdDYQ_u8Q3Gq5u1fZ_" name="circuit">
    <mxGraphModel dx="1050" dy="1266" grid="1" gridSize="10" guides="1" tooltips="1" connect="1" arrows="1" fold="1" page="0" pageScale="1" pageWidth="827" pageHeight="1169" math="0" shadow="0">
      <root>
        <mxCell id="0" />
        <mxCell id="1" parent="0" />
        <mxCell id="G12eSPo44jMHRV0VMuna-43" style="edgeStyle=orthogonalEdgeStyle;rounded=0;orthogonalLoop=1;jettySize=auto;html=1;exitX=1;exitY=0.5;exitDx=0;exitDy=0;exitPerimeter=0;endArrow=none;endFill=0;" parent="1" source="G12eSPo44jMHRV0VMuna-7" target="G12eSPo44jMHRV0VMuna-39" edge="1">
          <mxGeometry relative="1" as="geometry">
            <Array as="points">
              <mxPoint x="60" y="60" />
            </Array>
          </mxGeometry>
        </mxCell>
        <mxCell id="G12eSPo44jMHRV0VMuna-47" style="edgeStyle=orthogonalEdgeStyle;rounded=0;orthogonalLoop=1;jettySize=auto;html=1;exitX=0;exitY=0.5;exitDx=0;exitDy=0;exitPerimeter=0;endArrow=none;endFill=0;" parent="1" source="G12eSPo44jMHRV0VMuna-7" target="G12eSPo44jMHRV0VMuna-44" edge="1">
          <mxGeometry relative="1" as="geometry">
            <Array as="points">
              <mxPoint x="60" y="390" />
            </Array>
          </mxGeometry>
        </mxCell>
        <mxCell id="G12eSPo44jMHRV0VMuna-7" value="" style="verticalLabelPosition=bottom;shadow=0;dashed=0;align=center;fillColor=#000000;html=1;verticalAlign=top;strokeWidth=1;shape=mxgraph.electrical.miscellaneous.monocell_battery;rounded=1;comic=0;labelBackgroundColor=none;fontFamily=Verdana;fontSize=12;rotation=-90;" parent="1" vertex="1">
          <mxGeometry x="10" y="210" width="100" height="60" as="geometry" />
        </mxCell>
        <mxCell id="G12eSPo44jMHRV0VMuna-8" style="edgeStyle=orthogonalEdgeStyle;rounded=0;html=1;entryX=0;entryY=0.5;entryPerimeter=0;labelBackgroundColor=none;startArrow=none;startFill=0;startSize=5;endArrow=none;endFill=0;endSize=5;jettySize=auto;orthogonalLoop=1;strokeWidth=1;fontFamily=Verdana;fontSize=12;" parent="1" source="G12eSPo44jMHRV0VMuna-32" target="G12eSPo44jMHRV0VMuna-18" edge="1">
          <mxGeometry relative="1" as="geometry">
            <mxPoint x="750" y="230" as="sourcePoint" />
          </mxGeometry>
        </mxCell>
        <mxCell id="G12eSPo44jMHRV0VMuna-35" style="edgeStyle=orthogonalEdgeStyle;rounded=0;orthogonalLoop=1;jettySize=auto;html=1;exitX=0;exitY=0.5;exitDx=0;exitDy=0;exitPerimeter=0;endArrow=none;endFill=0;" parent="1" source="G12eSPo44jMHRV0VMuna-10" target="G12eSPo44jMHRV0VMuna-32" edge="1">
          <mxGeometry relative="1" as="geometry" />
        </mxCell>
        <mxCell id="G12eSPo44jMHRV0VMuna-41" style="edgeStyle=orthogonalEdgeStyle;rounded=0;orthogonalLoop=1;jettySize=auto;html=1;exitX=1;exitY=0.5;exitDx=0;exitDy=0;exitPerimeter=0;endArrow=none;endFill=0;" parent="1" source="G12eSPo44jMHRV0VMuna-10" target="G12eSPo44jMHRV0VMuna-39" edge="1">
          <mxGeometry relative="1" as="geometry" />
        </mxCell>
        <mxCell id="G12eSPo44jMHRV0VMuna-10" value="" style="verticalLabelPosition=bottom;shadow=0;dashed=0;align=center;html=1;verticalAlign=top;strokeWidth=1;shape=mxgraph.electrical.resistors.resistor_1;rounded=1;comic=0;labelBackgroundColor=none;fontFamily=Verdana;fontSize=12;rotation=-90;" parent="1" vertex="1">
          <mxGeometry x="180" y="120" width="100" height="20" as="geometry" />
        </mxCell>
        <mxCell id="G12eSPo44jMHRV0VMuna-37" style="edgeStyle=orthogonalEdgeStyle;rounded=0;orthogonalLoop=1;jettySize=auto;html=1;exitX=0;exitY=0.5;exitDx=0;exitDy=0;exitPerimeter=0;endArrow=none;endFill=0;" parent="1" source="G12eSPo44jMHRV0VMuna-12" target="G12eSPo44jMHRV0VMuna-36" edge="1">
          <mxGeometry relative="1" as="geometry" />
        </mxCell>
        <mxCell id="G12eSPo44jMHRV0VMuna-42" style="edgeStyle=orthogonalEdgeStyle;rounded=0;orthogonalLoop=1;jettySize=auto;html=1;exitX=1;exitY=0.5;exitDx=0;exitDy=0;exitPerimeter=0;endArrow=none;endFill=0;" parent="1" source="G12eSPo44jMHRV0VMuna-12" target="G12eSPo44jMHRV0VMuna-39" edge="1">
          <mxGeometry relative="1" as="geometry" />
        </mxCell>
        <mxCell id="G12eSPo44jMHRV0VMuna-12" value="" style="verticalLabelPosition=bottom;shadow=0;dashed=0;align=center;html=1;verticalAlign=top;strokeWidth=1;shape=mxgraph.electrical.resistors.resistor_1;rounded=1;comic=0;labelBackgroundColor=none;fontFamily=Verdana;fontSize=12;rotation=-90;" parent="1" vertex="1">
          <mxGeometry x="420" y="120" width="100" height="20" as="geometry" />
        </mxCell>
        <mxCell id="G12eSPo44jMHRV0VMuna-34" style="edgeStyle=orthogonalEdgeStyle;rounded=0;orthogonalLoop=1;jettySize=auto;html=1;exitX=1;exitY=0.5;exitDx=0;exitDy=0;exitPerimeter=0;endArrow=none;endFill=0;" parent="1" source="G12eSPo44jMHRV0VMuna-14" target="G12eSPo44jMHRV0VMuna-32" edge="1">
          <mxGeometry relative="1" as="geometry" />
        </mxCell>
        <mxCell id="G12eSPo44jMHRV0VMuna-45" style="edgeStyle=orthogonalEdgeStyle;rounded=0;orthogonalLoop=1;jettySize=auto;html=1;exitX=0;exitY=0.5;exitDx=0;exitDy=0;exitPerimeter=0;endArrow=none;endFill=0;" parent="1" source="G12eSPo44jMHRV0VMuna-14" target="G12eSPo44jMHRV0VMuna-44" edge="1">
          <mxGeometry relative="1" as="geometry" />
        </mxCell>
        <mxCell id="G12eSPo44jMHRV0VMuna-14" value="" style="verticalLabelPosition=bottom;shadow=0;dashed=0;align=center;html=1;verticalAlign=top;strokeWidth=1;shape=mxgraph.electrical.resistors.resistor_1;rounded=1;comic=0;labelBackgroundColor=none;fontFamily=Verdana;fontSize=12;rotation=-90;" parent="1" vertex="1">
          <mxGeometry x="180" y="290" width="100" height="20" as="geometry" />
        </mxCell>
        <mxCell id="G12eSPo44jMHRV0VMuna-38" style="edgeStyle=orthogonalEdgeStyle;rounded=0;orthogonalLoop=1;jettySize=auto;html=1;exitX=1;exitY=0.5;exitDx=0;exitDy=0;exitPerimeter=0;endArrow=none;endFill=0;" parent="1" source="G12eSPo44jMHRV0VMuna-16" target="G12eSPo44jMHRV0VMuna-36" edge="1">
          <mxGeometry relative="1" as="geometry" />
        </mxCell>
        <mxCell id="G12eSPo44jMHRV0VMuna-46" style="edgeStyle=orthogonalEdgeStyle;rounded=0;orthogonalLoop=1;jettySize=auto;html=1;exitX=0;exitY=0.5;exitDx=0;exitDy=0;exitPerimeter=0;endArrow=none;endFill=0;" parent="1" source="G12eSPo44jMHRV0VMuna-16" target="G12eSPo44jMHRV0VMuna-44" edge="1">
          <mxGeometry relative="1" as="geometry">
            <Array as="points">
              <mxPoint x="470" y="390" />
            </Array>
          </mxGeometry>
        </mxCell>
        <mxCell id="G12eSPo44jMHRV0VMuna-16" value="" style="verticalLabelPosition=bottom;shadow=0;dashed=0;align=center;html=1;verticalAlign=top;strokeWidth=1;shape=mxgraph.electrical.resistors.resistor_1;rounded=1;comic=0;labelBackgroundColor=none;fontFamily=Verdana;fontSize=12;rotation=-90;" parent="1" vertex="1">
          <mxGeometry x="420" y="290" width="100" height="20" as="geometry" />
        </mxCell>
        <mxCell id="G12eSPo44jMHRV0VMuna-17" style="edgeStyle=orthogonalEdgeStyle;rounded=0;html=1;exitX=1;exitY=0.5;exitPerimeter=0;labelBackgroundColor=none;startArrow=none;startFill=0;startSize=5;endArrow=none;endFill=0;endSize=5;jettySize=auto;orthogonalLoop=1;strokeWidth=1;fontFamily=Verdana;fontSize=12" parent="1" source="G12eSPo44jMHRV0VMuna-18" target="G12eSPo44jMHRV0VMuna-36" edge="1">
          <mxGeometry relative="1" as="geometry">
            <mxPoint x="400" y="250" as="targetPoint" />
          </mxGeometry>
        </mxCell>
        <mxCell id="G12eSPo44jMHRV0VMuna-18" value="" style="verticalLabelPosition=bottom;shadow=0;dashed=0;align=center;fillColor=#ffffff;html=1;verticalAlign=top;strokeWidth=1;shape=mxgraph.electrical.resistors.resistor_1;rounded=1;comic=0;labelBackgroundColor=none;fontFamily=Verdana;fontSize=12;fontColor=#000000;rotation=0;" parent="1" vertex="1">
          <mxGeometry x="300" y="210" width="100" height="20" as="geometry" />
        </mxCell>
        <mxCell id="G12eSPo44jMHRV0VMuna-19" value="R1" style="text;html=1;resizable=0;points=[];autosize=1;align=left;verticalAlign=top;spacingTop=-4;fontSize=16;fontFamily=Verdana" parent="1" vertex="1">
          <mxGeometry x="192" y="120" width="40" height="20" as="geometry" />
        </mxCell>
        <mxCell id="G12eSPo44jMHRV0VMuna-20" value="R2" style="text;html=1;resizable=0;points=[];autosize=1;align=left;verticalAlign=top;spacingTop=-4;fontSize=16;fontFamily=Verdana" parent="1" vertex="1">
          <mxGeometry x="192" y="290" width="40" height="20" as="geometry" />
        </mxCell>
        <mxCell id="G12eSPo44jMHRV0VMuna-21" value="R5" style="text;html=1;resizable=0;points=[];autosize=1;align=left;verticalAlign=top;spacingTop=-4;fontSize=16;fontFamily=Verdana" parent="1" vertex="1">
          <mxGeometry x="330" y="180" width="40" height="20" as="geometry" />
        </mxCell>
        <mxCell id="G12eSPo44jMHRV0VMuna-22" value="R3" style="text;html=1;resizable=0;points=[];autosize=1;align=left;verticalAlign=top;spacingTop=-4;fontSize=16;fontFamily=Verdana" parent="1" vertex="1">
          <mxGeometry x="480" y="120" width="40" height="20" as="geometry" />
        </mxCell>
        <mxCell id="G12eSPo44jMHRV0VMuna-23" value="R4" style="text;html=1;resizable=0;points=[];autosize=1;align=left;verticalAlign=top;spacingTop=-4;fontSize=16;fontFamily=Verdana" parent="1" vertex="1">
          <mxGeometry x="480" y="290" width="40" height="20" as="geometry" />
        </mxCell>
        <mxCell id="G12eSPo44jMHRV0VMuna-24" value="I" style="endArrow=classic;html=1;labelBackgroundColor=none;strokeWidth=1;fontFamily=Verdana;fontSize=16" parent="1" edge="1">
          <mxGeometry x="-0.1429" y="20" width="50" height="50" relative="1" as="geometry">
            <mxPoint x="60" y="20" as="sourcePoint" />
            <mxPoint x="130" y="20" as="targetPoint" />
            <mxPoint as="offset" />
          </mxGeometry>
        </mxCell>
        <mxCell id="G12eSPo44jMHRV0VMuna-25" value="U" style="endArrow=classic;html=1;labelBackgroundColor=none;strokeWidth=1;fontFamily=Verdana;fontSize=16" parent="1" edge="1">
          <mxGeometry x="-0.1429" y="20" width="50" height="50" relative="1" as="geometry">
            <mxPoint x="20" y="280" as="sourcePoint" />
            <mxPoint x="20" y="200" as="targetPoint" />
            <mxPoint as="offset" />
          </mxGeometry>
        </mxCell>
        <mxCell id="G12eSPo44jMHRV0VMuna-26" value="I5" style="endArrow=classic;html=1;labelBackgroundColor=none;strokeWidth=1;fontFamily=Verdana;fontSize=16" parent="1" edge="1">
          <mxGeometry x="-0.1429" y="20" width="50" height="50" relative="1" as="geometry">
            <mxPoint x="240" y="200" as="sourcePoint" />
            <mxPoint x="310" y="200" as="targetPoint" />
            <mxPoint as="offset" />
          </mxGeometry>
        </mxCell>
        <mxCell id="G12eSPo44jMHRV0VMuna-27" value="Is1" style="verticalLabelPosition=middle;html=1;verticalAlign=middle;strokeWidth=1;shape=mxgraph.lean_mapping.physical_pull;rounded=1;shadow=0;comic=0;labelBackgroundColor=none;fillColor=#000000;fontFamily=Verdana;fontSize=16;align=center;flipH=1;labelPosition=center;" parent="1" vertex="1">
          <mxGeometry x="110" y="190" width="80" height="80" as="geometry" />
        </mxCell>
        <mxCell id="G12eSPo44jMHRV0VMuna-28" value="Is2" style="verticalLabelPosition=middle;html=1;verticalAlign=middle;strokeWidth=1;shape=mxgraph.lean_mapping.physical_pull;rounded=1;shadow=0;comic=0;labelBackgroundColor=none;fillColor=#000000;fontFamily=Verdana;fontSize=16;align=center;flipH=1;labelPosition=center;" parent="1" vertex="1">
          <mxGeometry x="310" y="70" width="80" height="80" as="geometry" />
        </mxCell>
        <mxCell id="G12eSPo44jMHRV0VMuna-29" value="Is3" style="verticalLabelPosition=middle;html=1;verticalAlign=middle;strokeWidth=1;shape=mxgraph.lean_mapping.physical_pull;rounded=1;shadow=0;comic=0;labelBackgroundColor=none;fillColor=#000000;fontFamily=Verdana;fontSize=16;align=center;flipH=1;labelPosition=center;" parent="1" vertex="1">
          <mxGeometry x="310" y="270" width="80" height="80" as="geometry" />
        </mxCell>
        <mxCell id="G12eSPo44jMHRV0VMuna-32" value="" style="shape=waypoint;sketch=0;size=6;pointerEvents=1;points=[];fillColor=none;resizable=0;rotatable=0;perimeter=centerPerimeter;snapToPoint=1;" parent="1" vertex="1">
          <mxGeometry x="210" y="200" width="40" height="40" as="geometry" />
        </mxCell>
        <mxCell id="G12eSPo44jMHRV0VMuna-36" value="" style="shape=waypoint;sketch=0;size=6;pointerEvents=1;points=[];fillColor=none;resizable=0;rotatable=0;perimeter=centerPerimeter;snapToPoint=1;" parent="1" vertex="1">
          <mxGeometry x="450" y="200" width="40" height="40" as="geometry" />
        </mxCell>
        <mxCell id="G12eSPo44jMHRV0VMuna-39" value="" style="shape=waypoint;sketch=0;size=6;pointerEvents=1;points=[];fillColor=none;resizable=0;rotatable=0;perimeter=centerPerimeter;snapToPoint=1;" parent="1" vertex="1">
          <mxGeometry x="210" y="40" width="40" height="40" as="geometry" />
        </mxCell>
        <mxCell id="G12eSPo44jMHRV0VMuna-44" value="" style="shape=waypoint;sketch=0;size=6;pointerEvents=1;points=[];fillColor=none;resizable=0;rotatable=0;perimeter=centerPerimeter;snapToPoint=1;" parent="1" vertex="1">
          <mxGeometry x="210" y="370" width="40" height="40" as="geometry" />
        </mxCell>
      </root>
    </mxGraphModel>
  </diagram>
  <diagram name="logic" id="YBJ5OWn4XaWfx2rxE2XB">
    <mxGraphModel dx="1033" dy="782" grid="1" gridSize="10" guides="1" tooltips="1" connect="1" arrows="1" fold="1" page="0" pageScale="1" pageWidth="850" pageHeight="1100" math="0" shadow="0">
      <root>
        <mxCell id="QUeHIoVe-N7WYJK59KCd-0" />
        <mxCell id="QUeHIoVe-N7WYJK59KCd-1" parent="QUeHIoVe-N7WYJK59KCd-0" />
        <mxCell id="esUAEg9nhvNPmBcIuyUJ-24" style="edgeStyle=orthogonalEdgeStyle;rounded=0;orthogonalLoop=1;jettySize=auto;html=1;exitX=1;exitY=0.5;exitDx=0;exitDy=0;exitPerimeter=0;endArrow=none;endFill=0;align=left;" parent="QUeHIoVe-N7WYJK59KCd-1" source="esUAEg9nhvNPmBcIuyUJ-0" target="esUAEg9nhvNPmBcIuyUJ-23" edge="1">
          <mxGeometry relative="1" as="geometry">
            <mxPoint x="550" y="360" as="targetPoint" />
          </mxGeometry>
        </mxCell>
        <mxCell id="esUAEg9nhvNPmBcIuyUJ-0" value="" style="verticalLabelPosition=bottom;shadow=0;dashed=0;align=center;html=1;verticalAlign=top;shape=mxgraph.electrical.logic_gates.logic_gate;operation=and;fillColor=#D4E1F5;" parent="QUeHIoVe-N7WYJK59KCd-1" vertex="1">
          <mxGeometry x="380" y="260.5" width="100" height="60" as="geometry" />
        </mxCell>
        <mxCell id="esUAEg9nhvNPmBcIuyUJ-10" style="edgeStyle=orthogonalEdgeStyle;rounded=0;orthogonalLoop=1;jettySize=auto;html=1;endArrow=none;endFill=0;exitX=1;exitY=0.5;exitDx=0;exitDy=0;exitPerimeter=0;entryX=0;entryY=0.75;entryDx=0;entryDy=0;entryPerimeter=0;" parent="QUeHIoVe-N7WYJK59KCd-1" source="esUAEg9nhvNPmBcIuyUJ-3" target="esUAEg9nhvNPmBcIuyUJ-0" edge="1">
          <mxGeometry relative="1" as="geometry">
            <mxPoint x="420" y="360" as="targetPoint" />
            <Array as="points">
              <mxPoint x="340" y="340" />
              <mxPoint x="340" y="306" />
            </Array>
          </mxGeometry>
        </mxCell>
        <mxCell id="esUAEg9nhvNPmBcIuyUJ-3" value="" style="verticalLabelPosition=bottom;shadow=0;dashed=0;align=center;html=1;verticalAlign=top;shape=mxgraph.electrical.logic_gates.logic_gate;operation=or;negating=1;negSize=0.15;fillColor=#D4E1F5;" parent="QUeHIoVe-N7WYJK59KCd-1" vertex="1">
          <mxGeometry x="190" y="310" width="100" height="60" as="geometry" />
        </mxCell>
        <mxCell id="esUAEg9nhvNPmBcIuyUJ-5" style="edgeStyle=orthogonalEdgeStyle;rounded=0;orthogonalLoop=1;jettySize=auto;html=1;entryX=0;entryY=0.25;entryDx=0;entryDy=0;entryPerimeter=0;endArrow=none;endFill=0;" parent="QUeHIoVe-N7WYJK59KCd-1" source="esUAEg9nhvNPmBcIuyUJ-4" target="esUAEg9nhvNPmBcIuyUJ-0" edge="1">
          <mxGeometry relative="1" as="geometry">
            <Array as="points">
              <mxPoint x="340" y="250" />
              <mxPoint x="340" y="276" />
            </Array>
          </mxGeometry>
        </mxCell>
        <mxCell id="esUAEg9nhvNPmBcIuyUJ-4" value="" style="verticalLabelPosition=bottom;shadow=0;dashed=0;align=center;html=1;verticalAlign=top;shape=mxgraph.electrical.logic_gates.logic_gate;operation=and;negating=1;negSize=0.15;fillColor=#D4E1F5;" parent="QUeHIoVe-N7WYJK59KCd-1" vertex="1">
          <mxGeometry x="190" y="220" width="100" height="60" as="geometry" />
        </mxCell>
        <mxCell id="esUAEg9nhvNPmBcIuyUJ-9" value="" style="endArrow=none;html=1;labelPosition=left;verticalLabelPosition=middle;align=left;verticalAlign=middle;entryX=0.21;entryY=0.5;entryDx=0;entryDy=0;entryPerimeter=0;" parent="QUeHIoVe-N7WYJK59KCd-1" target="esUAEg9nhvNPmBcIuyUJ-0" edge="1">
          <mxGeometry width="50" height="50" relative="1" as="geometry">
            <mxPoint x="80" y="290" as="sourcePoint" />
            <mxPoint x="310" y="305" as="targetPoint" />
          </mxGeometry>
        </mxCell>
        <mxCell id="esUAEg9nhvNPmBcIuyUJ-22" value="C" style="edgeLabel;html=1;align=center;verticalAlign=middle;resizable=0;points=[];" parent="esUAEg9nhvNPmBcIuyUJ-9" vertex="1" connectable="0">
          <mxGeometry x="-0.9286" relative="1" as="geometry">
            <mxPoint x="-20" as="offset" />
          </mxGeometry>
        </mxCell>
        <mxCell id="esUAEg9nhvNPmBcIuyUJ-14" style="edgeStyle=orthogonalEdgeStyle;rounded=0;orthogonalLoop=1;jettySize=auto;html=1;entryX=0;entryY=0.25;entryDx=0;entryDy=0;entryPerimeter=0;endArrow=none;endFill=0;" parent="QUeHIoVe-N7WYJK59KCd-1" source="esUAEg9nhvNPmBcIuyUJ-11" target="esUAEg9nhvNPmBcIuyUJ-4" edge="1">
          <mxGeometry relative="1" as="geometry" />
        </mxCell>
        <mxCell id="esUAEg9nhvNPmBcIuyUJ-16" style="edgeStyle=orthogonalEdgeStyle;rounded=0;orthogonalLoop=1;jettySize=auto;html=1;entryX=0;entryY=0.25;entryDx=0;entryDy=0;entryPerimeter=0;endArrow=none;endFill=0;jumpStyle=arc;jumpSize=16;" parent="QUeHIoVe-N7WYJK59KCd-1" source="esUAEg9nhvNPmBcIuyUJ-11" target="esUAEg9nhvNPmBcIuyUJ-3" edge="1">
          <mxGeometry relative="1" as="geometry">
            <Array as="points">
              <mxPoint x="160" y="325" />
            </Array>
          </mxGeometry>
        </mxCell>
        <mxCell id="esUAEg9nhvNPmBcIuyUJ-11" value="" style="shape=waypoint;sketch=0;size=6;pointerEvents=1;points=[];fillColor=none;resizable=0;rotatable=0;perimeter=centerPerimeter;snapToPoint=1;" parent="QUeHIoVe-N7WYJK59KCd-1" vertex="1">
          <mxGeometry x="140" y="215" width="40" height="40" as="geometry" />
        </mxCell>
        <mxCell id="esUAEg9nhvNPmBcIuyUJ-13" style="edgeStyle=orthogonalEdgeStyle;rounded=0;orthogonalLoop=1;jettySize=auto;html=1;entryX=0;entryY=0.75;entryDx=0;entryDy=0;entryPerimeter=0;endArrow=none;endFill=0;" parent="QUeHIoVe-N7WYJK59KCd-1" source="esUAEg9nhvNPmBcIuyUJ-12" target="esUAEg9nhvNPmBcIuyUJ-4" edge="1">
          <mxGeometry relative="1" as="geometry" />
        </mxCell>
        <mxCell id="esUAEg9nhvNPmBcIuyUJ-15" style="edgeStyle=orthogonalEdgeStyle;rounded=0;orthogonalLoop=1;jettySize=auto;html=1;entryX=0;entryY=0.75;entryDx=0;entryDy=0;entryPerimeter=0;endArrow=none;endFill=0;jumpStyle=arc;jumpSize=16;" parent="QUeHIoVe-N7WYJK59KCd-1" source="esUAEg9nhvNPmBcIuyUJ-12" target="esUAEg9nhvNPmBcIuyUJ-3" edge="1">
          <mxGeometry relative="1" as="geometry">
            <Array as="points">
              <mxPoint x="130" y="355" />
            </Array>
          </mxGeometry>
        </mxCell>
        <mxCell id="esUAEg9nhvNPmBcIuyUJ-12" value="" style="shape=waypoint;sketch=0;size=6;pointerEvents=1;points=[];fillColor=none;resizable=0;rotatable=0;perimeter=centerPerimeter;snapToPoint=1;" parent="QUeHIoVe-N7WYJK59KCd-1" vertex="1">
          <mxGeometry x="110" y="245" width="40" height="40" as="geometry" />
        </mxCell>
        <mxCell id="esUAEg9nhvNPmBcIuyUJ-17" value="" style="endArrow=none;html=1;labelPosition=left;verticalLabelPosition=middle;align=left;verticalAlign=middle;" parent="QUeHIoVe-N7WYJK59KCd-1" target="esUAEg9nhvNPmBcIuyUJ-11" edge="1">
          <mxGeometry width="50" height="50" relative="1" as="geometry">
            <mxPoint x="80" y="235" as="sourcePoint" />
            <mxPoint x="450" y="530" as="targetPoint" />
          </mxGeometry>
        </mxCell>
        <mxCell id="esUAEg9nhvNPmBcIuyUJ-20" value="A" style="edgeLabel;html=1;align=center;verticalAlign=middle;resizable=0;points=[];" parent="esUAEg9nhvNPmBcIuyUJ-17" vertex="1" connectable="0">
          <mxGeometry x="-0.725" y="2" relative="1" as="geometry">
            <mxPoint x="-21" y="2" as="offset" />
          </mxGeometry>
        </mxCell>
        <mxCell id="esUAEg9nhvNPmBcIuyUJ-18" value="" style="endArrow=none;html=1;labelPosition=left;verticalLabelPosition=middle;align=left;verticalAlign=middle;" parent="QUeHIoVe-N7WYJK59KCd-1" target="esUAEg9nhvNPmBcIuyUJ-12" edge="1">
          <mxGeometry width="50" height="50" relative="1" as="geometry">
            <mxPoint x="80" y="265" as="sourcePoint" />
            <mxPoint x="450" y="530" as="targetPoint" />
          </mxGeometry>
        </mxCell>
        <mxCell id="esUAEg9nhvNPmBcIuyUJ-21" value="B" style="edgeLabel;html=1;align=center;verticalAlign=middle;resizable=0;points=[];" parent="esUAEg9nhvNPmBcIuyUJ-18" vertex="1" connectable="0">
          <mxGeometry x="-0.48" relative="1" as="geometry">
            <mxPoint x="-23" as="offset" />
          </mxGeometry>
        </mxCell>
        <mxCell id="esUAEg9nhvNPmBcIuyUJ-23" value="Output (Q)" style="verticalLabelPosition=middle;shadow=0;dashed=0;align=left;html=1;verticalAlign=middle;strokeWidth=1;shape=ellipse;perimeter=ellipsePerimeter;labelPosition=right;fillColor=#f5f5f5;fontColor=#333333;" parent="QUeHIoVe-N7WYJK59KCd-1" vertex="1">
          <mxGeometry x="500" y="283" width="15" height="15" as="geometry" />
        </mxCell>
      </root>
    </mxGraphModel>
  </diagram>
</mxfile>
